<!-- icon666.com - MILLIONS vector ICONS FREE --><svg version="1.1" id="Layer_1" xmlns="http://www.w3.org/2000/svg" xmlns:xlink="http://www.w3.org/1999/xlink" x="0px" y="0px" viewBox="0 0 512 512" style="enable-background:new 0 0 512 512;" xml:space="preserve"><path id="SVGCleanerId_0" style="fill:#CC7400;" d="M386.005,76.588c-20.904,0-40.579,7.377-56.002,20.461l12.559-88.445 c0.307-2.164-0.34-4.355-1.772-6.006C339.357,0.948,337.279,0,335.093,0H177.837c-2.186,0-4.264,0.948-5.697,2.599 c-1.432,1.651-2.08,3.842-1.772,6.006l12.705,89.476c-15.622-13.618-35.889-21.493-57.079-21.493 c-47.837,0-86.754,38.918-86.754,86.754c0,39.203,26.592,73.578,63.972,83.729c12.642,93.707,66.333,252.947,68.654,259.804 c1.036,3.063,3.912,5.125,7.145,5.125h154.908c3.234,0,6.109-2.061,7.145-5.125c0.145-0.428,14.677-43.434,30.388-97.265 c20.23-69.311,33.104-124.046,38.306-162.829c16.973-4.837,32.272-14.88,43.514-28.662c12.567-15.407,19.488-34.861,19.488-54.777 C472.76,115.506,433.842,76.588,386.005,76.588z M410.159,192.571c-0.204-0.774-0.422-1.524-0.656-2.251 c-0.268-0.833-0.542-1.656-0.821-2.467c-7.974-23.161-24.403-42.566-45.846-54.542c6.561-5.089,14.639-7.894,23.17-7.894 c20.913,0,37.925,17.013,37.925,37.925C423.931,174.803,418.74,185.469,410.159,192.571z M149.558,133.613 c-21.174,12.002-37.413,31.304-45.309,54.241c-0.28,0.812-0.553,1.635-0.82,2.466c-0.299,0.927-0.573,1.892-0.822,2.896 c-9.049-7.073-14.537-17.997-14.537-29.873c0-20.912,17.013-37.925,37.925-37.925C134.711,125.417,142.934,128.331,149.558,133.613z "></path><g><path id="SVGCleanerId_0_1_" style="fill:#CC7400;" d="M386.005,76.588c-20.904,0-40.579,7.377-56.002,20.461l12.559-88.445 c0.307-2.164-0.34-4.355-1.772-6.006C339.357,0.948,337.279,0,335.093,0H177.837c-2.186,0-4.264,0.948-5.697,2.599 c-1.432,1.651-2.08,3.842-1.772,6.006l12.705,89.476c-15.622-13.618-35.889-21.493-57.079-21.493 c-47.837,0-86.754,38.918-86.754,86.754c0,39.203,26.592,73.578,63.972,83.729c12.642,93.707,66.333,252.947,68.654,259.804 c1.036,3.063,3.912,5.125,7.145,5.125h154.908c3.234,0,6.109-2.061,7.145-5.125c0.145-0.428,14.677-43.434,30.388-97.265 c20.23-69.311,33.104-124.046,38.306-162.829c16.973-4.837,32.272-14.88,43.514-28.662c12.567-15.407,19.488-34.861,19.488-54.777 C472.76,115.506,433.842,76.588,386.005,76.588z M410.159,192.571c-0.204-0.774-0.422-1.524-0.656-2.251 c-0.268-0.833-0.542-1.656-0.821-2.467c-7.974-23.161-24.403-42.566-45.846-54.542c6.561-5.089,14.639-7.894,23.17-7.894 c20.913,0,37.925,17.013,37.925,37.925C423.931,174.803,418.74,185.469,410.159,192.571z M149.558,133.613 c-21.174,12.002-37.413,31.304-45.309,54.241c-0.28,0.812-0.553,1.635-0.82,2.466c-0.299,0.927-0.573,1.892-0.822,2.896 c-9.049-7.073-14.537-17.997-14.537-29.873c0-20.912,17.013-37.925,37.925-37.925C134.711,125.417,142.934,128.331,149.558,133.613 z"></path></g><path style="fill:#BA6500;" d="M453.272,218.12c12.567-15.407,19.488-34.861,19.488-54.777c0-47.836-38.918-86.754-86.754-86.754 c-20.904,0-40.579,7.377-56.002,20.461l12.559-88.445c0.307-2.164-0.34-4.355-1.772-6.006C339.357,0.948,337.279,0,335.093,0 h-27.886l-18.588,123.174c107.003,35.355,88.051,98.164,77.321,161.2c-9.311,54.7-55.207,192.213-67.183,227.626h35.163 c3.234,0,6.109-2.061,7.145-5.125c0.145-0.428,14.677-43.434,30.388-97.265c20.23-69.311,33.104-124.046,38.306-162.829 C426.731,241.944,442.03,231.901,453.272,218.12z M410.159,192.571c-0.204-0.774-0.422-1.524-0.656-2.251 c-0.268-0.833-0.542-1.656-0.821-2.467c-7.974-23.161-24.403-42.566-45.846-54.542c6.561-5.089,14.639-7.894,23.17-7.894 c20.913,0,37.925,17.013,37.925,37.925C423.931,174.803,418.74,185.469,410.159,192.571z"></path><path style="fill:#A05700;" d="M181.616,87.819c2.592,21.026,5.107,36.099,5.107,36.099H326.2l3.814-26.878 c-0.004,0.003-0.007,0.006-0.011,0.009l12.559-88.445c0.307-2.164-0.34-4.355-1.772-6.006C339.357,0.948,337.279,0,335.093,0 H177.837c-2.186,0-4.264,0.948-5.697,2.599c-1.432,1.651-2.08,3.842-1.772,6.006L181.616,87.819z"></path><g><path style="fill:#874600;" d="M290.805,123.918H326.2l3.814-26.878c-0.004,0.003-0.007,0.006-0.011,0.009l12.559-88.445 c0.307-2.164-0.34-4.355-1.772-6.006C339.357,0.948,337.279,0,335.093,0h-27.886l-18.588,123.174 C289.361,123.419,290.075,123.67,290.805,123.918z"></path><path style="fill:#874600;" d="M300.935,0l-23.986,22.844c-1.811,1.725-2.649,4.236-2.239,6.703l3.581,21.48l-14.387,6.64 c-3.784,1.746-5.435,6.228-3.689,10.011c1.273,2.759,4.003,4.384,6.855,4.384c1.058,0,2.133-0.224,3.156-0.696l19.614-9.053 c3.086-1.424,4.839-4.737,4.28-8.09l-3.868-23.213L322.814,0H300.935z"></path><path style="fill:#874600;" d="M102.607,193.216c-9.049-7.073-14.537-17.997-14.537-29.873c0-20.912,17.013-37.925,37.925-37.925 c8.716,0,16.939,2.914,23.564,8.196l37.165-9.695l-3.65-25.838c-15.622-13.618-35.889-21.493-57.079-21.493 c-47.837,0-86.754,38.918-86.754,86.754c0,39.203,26.592,73.578,63.972,83.729C103.212,247.072,97.453,216.729,102.607,193.216z"></path><path style="fill:#874600;" d="M453.272,218.12c12.567-15.407,19.488-34.861,19.488-54.777c0-47.836-38.918-86.754-86.754-86.754 c-20.9,0-40.572,7.375-55.994,20.455l-3.811,26.875c13.237,1.493,36.635,9.393,36.635,9.393c6.561-5.089,14.639-7.894,23.17-7.894 c20.913,0,37.925,17.013,37.925,37.925c0,11.461-5.19,22.127-13.772,29.229c4.989,24.21-0.401,54.21-0.401,54.21 C426.731,241.944,442.03,231.901,453.272,218.12z"></path><path style="fill:#874600;" d="M334.986,61.959l-0.016,0.114L334.986,61.959z"></path></g><path style="fill:#A05700;" d="M104.508,256c8.037,51.914,26.88,120.457,42.611,172.815h218.647 c1.862-6.202,3.765-12.621,5.687-19.205c18.678-63.994,31.08-115.55,36.967-153.61H104.508z"></path><path style="fill:#894700;" d="M370.887,256c-1.531,9.391-3.331,18.88-4.947,28.374c-5.462,32.091-23.517,92.682-39.927,144.441 h39.752c1.862-6.202,3.765-12.621,5.687-19.205c18.678-63.994,31.08-115.55,36.967-153.61H370.887z"></path><path id="SVGCleanerId_1" style="fill:#957856;" d="M400.094,288.815c-1.434-1.762-3.593-2.786-5.875-2.786h-274.44 c-2.281,0-4.441,1.024-5.874,2.786c-1.434,1.762-1.988,4.074-1.509,6.289c6.028,27.877,14.422,60.642,24.949,97.385 c0.923,3.224,3.889,5.448,7.264,5.448H369.39c2.733,0,5.177-1.473,6.506-3.74c11.101-38.964,19.719-72.988,25.783-101.784 C401.481,291.11,400.947,289.864,400.094,288.815z"></path><g><path id="SVGCleanerId_1_1_" style="fill:#957856;" d="M400.094,288.815c-1.434-1.762-3.593-2.786-5.875-2.786h-274.44 c-2.281,0-4.441,1.024-5.874,2.786c-1.434,1.762-1.988,4.074-1.509,6.289c6.028,27.877,14.422,60.642,24.949,97.385 c0.923,3.224,3.889,5.448,7.264,5.448H369.39c2.733,0,5.177-1.473,6.506-3.74c11.101-38.964,19.719-72.988,25.783-101.784 C401.481,291.11,400.947,289.864,400.094,288.815z"></path></g><path style="fill:#876B50;" d="M374.828,397.936c11.375-39.679,20.211-74.313,26.447-103.631c0.907-4.263-2.335-8.277-6.693-8.277 h-28.934c-4.64,26.067-16.965,69.473-29.993,111.908L374.828,397.936L374.828,397.936z"></path><path style="fill:#6B563E;" d="M401.679,292.412c-0.198-1.302-0.732-2.548-1.585-3.597c-1.434-1.762-3.593-2.786-5.875-2.786 h-62.447h-75.063h-75.061c0,0,0,0-0.001,0h-0.001h-61.868c-2.281,0-4.44,1.024-5.874,2.786c-1.434,1.762-1.988,4.074-1.509,6.289 c5.983,27.672,14.307,60.191,24.739,96.652c0.889,3.105,3.678,5.297,6.924,5.442c0.115,0.005,0.229,0.008,0.343,0.008 c3.111,0,5.922-1.902,7.046-4.808l30.2-77.978l30.482,78.709c1.122,2.897,3.924,4.808,7.048,4.808c3.125,0,5.926-1.911,7.048-4.808 l30.483-78.708l30.483,78.708c1.122,2.897,3.923,4.808,7.048,4.808s5.927-1.911,7.048-4.808l30.483-78.708l30.483,78.708 c1.122,2.897,4.01,4.808,7.135,4.808c2.733,0,5.177-1.473,6.507-3.74C386.997,355.233,395.616,321.208,401.679,292.412 L401.679,292.412z"></path><path style="fill:#544332;" d="M401.679,292.412c-0.198-1.302-0.732-2.548-1.585-3.597c-1.434-1.762-3.593-2.786-5.875-2.786 h-28.571c-3.114,17.494-9.688,42.794-17.616,70.376l14.223,36.724c1.122,2.897,4.01,4.808,7.135,4.808 c2.733,0,5.177-1.473,6.507-3.74C386.997,355.233,395.616,321.208,401.679,292.412L401.679,292.412z"></path></svg>